HIERARCHY
ROOT pelvis
{
  OFFSET 0 100 0
  CHANNELS 6 Xposition Yposition Zposition Zrotation Xrotation Yrotation
  JOINT pelvis_right_femur
  {
    OFFSET -10.78128 -3.44521 -0.5502486
    CHANNELS 3 Zrotation Xrotation Yrotation
    JOINT right_femur_tibia
    {
      OFFSET -0.8047443 -44.0398 -0.1307829
      CHANNELS 3 Zrotation Xrotation Yrotation
      JOINT right_tibia_foot
      {
        OFFSET 3.006224 -47.83518 -5
        CHANNELS 3 Zrotation Xrotation Yrotation
        End Site
        {
          OFFSET 0 -5 15
        }
      }
    }
  }
  JOINT pelvis_left_femur
  {
    OFFSET 10.78128 -3.44521 -0.5502486
    CHANNELS 3 Zrotation Xrotation Yrotation
    JOINT left_femur_tibia
    {
      OFFSET 0.8047443 -44.0398 -0.1307829
      CHANNELS 3 Zrotation Xrotation Yrotation
      JOINT left_tibia_foot
      {
        OFFSET -4.370144 -48.10324 -4.275266
        CHANNELS 3 Zrotation Xrotation Yrotation
        End Site
        {
          OFFSET 0 -5 15
        }
      }
    }
  }
  JOINT pelvis_spine1
  {
    OFFSET 0 6.468898 -3.129235
    CHANNELS 3 Zrotation Xrotation Yrotation
    JOINT spine1
    {
      OFFSET 0 23.15396 4.99043
      CHANNELS 3 Zrotation Xrotation Yrotation
      JOINT spine2
      {
        OFFSET 0 20.79997 -5.064912
        CHANNELS 3 Zrotation Xrotation Yrotation
        JOINT neck
        {
          OFFSET 0 14.38658 9.616178
          CHANNELS 3 Zrotation Xrotation Yrotation
          End Site
          {
            OFFSET 0 20 0
          }
        }
      }
      JOINT right_manubrium
      {
        OFFSET -5.722621 16.35077 3.967754
        CHANNELS 3 Zrotation Xrotation Yrotation
        JOINT right_clavicle
        {
          OFFSET -13.16364 1.694482 -4.693211
          CHANNELS 3 Zrotation Xrotation Yrotation
          JOINT right_humerus
          {
            OFFSET -28.5034 -0.3100689 -2.792744
            CHANNELS 3 Zrotation Xrotation Yrotation
            JOINT right_radius
            {
              OFFSET -25.15693 0.02248979 -1.271978
              CHANNELS 3 Zrotation Xrotation Yrotation
              End Site
              {
                OFFSET -15 0 0
              }
            }
          }
        }
      }
      JOINT left_manubrium
      {
        OFFSET 5.722621 16.35077 3.967754
        CHANNELS 3 Zrotation Xrotation Yrotation
        JOINT left_clavicle
        {
          OFFSET 13.16364 1.694482 -4.693211
          CHANNELS 3 Zrotation Xrotation Yrotation
          JOINT left_humerus
          {
            OFFSET 29.39168 -1.063119 -2.237045
            CHANNELS 3 Zrotation Xrotation Yrotation
            JOINT left_radius
            {
              OFFSET 24.59957 -0.9528479 0.9047498
              CHANNELS 3 Zrotation Xrotation Yrotation
              End Site
              {
                OFFSET 15 -0 -0
              }
            }
          }
        }
      }
    }
  }
}
MOTION
Frames: 23
Frame Time: 0.0416666666667
-1767.417 108.6873 71.37287 3.081967 17.4533 168.3606 4.417551 10.91848 -8.387086 -0 15.50318 -0 -11.94274 2.348653 -2.509718 -2.25562 -0.8427849 -8.019285 -0 25.22238 -0 -7.754419 -11.27932 17.99166 0.8877893 0.8722308 2.468044 -1.054905 10.76952 -1.747941 4.160136 28.29859 2.33075 0.2691795 -16.45788 7.279204 -10.38063 -21.57712 9.31539 99.10786 1.067358 -10.4323 -0 0 11.23891 -26.39283 6.057023 12.32753 5.615027 -19.17786 -8.914883 -95.59051 23.70647 20.36426 0 0 -3.462187 1.460498 20.07941 9.016899
-1766.186 108.6769 65.0308 3.213861 17.43021 167.9205 4.417551 10.91848 -8.387086 -0 15.50318 -0 -11.94274 2.348653 -2.509718 -2.25562 -0.8427849 -8.019285 -0 25.22238 -0 -7.754419 -11.27932 17.99166 0.8877893 0.8722308 2.468044 -1.054905 10.76952 -1.747941 4.160136 28.29859 2.33075 0.2691795 -16.45788 7.279204 -10.38063 -21.57712 9.31539 99.10786 1.067358 -10.4323 -0 0 11.23891 -26.39283 6.057023 12.32753 5.615027 -19.17786 -8.914883 -95.59051 23.70647 20.36426 0 0 -3.462187 1.460498 20.07941 9.016899
-1764.909 108.6666 58.69793 3.345549 17.40616 167.4806 4.417551 10.91848 -8.387086 -0 15.50318 -0 -11.94274 2.348653 -2.509718 -2.25562 -0.8427849 -8.019285 -0 25.22238 -0 -7.754419 -11.27932 17.99166 0.8877893 0.8722307 2.468044 -1.054905 10.76952 -1.747941 4.160136 28.29859 2.33075 0.2691795 -16.45788 7.279204 -10.38063 -21.57712 9.31539 99.10786 1.067358 -10.4323 -0 0 11.23891 -26.39283 6.057024 12.32753 5.615027 -19.17786 -8.914883 -95.59051 23.70647 20.36426 0 0 -3.462187 1.460498 20.07941 9.016899
-1763.585 108.6562 52.3746 3.477021 17.38114 167.0408 4.417551 10.91848 -8.387086 -0 15.50318 -0 -11.94274 2.348653 -2.509718 -2.25562 -0.8427849 -8.019285 -0 25.22238 -0 -7.754419 -11.27932 17.99166 0.8877893 0.8722307 2.468044 -1.054905 10.76952 -1.747941 4.160136 28.29859 2.33075 0.2691795 -16.45788 7.279204 -10.38063 -21.57712 9.31539 99.10786 1.067358 -10.4323 -0 0 11.23891 -26.39283 6.057024 12.32753 5.615027 -19.17786 -8.914883 -95.59051 23.70647 20.36426 0 0 -3.462187 1.460498 20.07941 9.016899
-1762.214 108.6458 46.06116 3.608271 17.35516 166.6011 4.417551 10.91848 -8.387086 -0 15.50318 -0 -11.94274 2.348653 -2.509718 -2.25562 -0.8427849 -8.019285 -0 25.22238 -0 -7.754419 -11.27932 17.99166 0.8877893 0.8722307 2.468044 -1.054905 10.76952 -1.747941 4.160136 28.29859 2.33075 0.2691795 -16.45788 7.279204 -10.38063 -21.57712 9.31539 99.10786 1.067358 -10.4323 -0 0 11.23891 -26.39283 6.057024 12.32753 5.615027 -19.17786 -8.914883 -95.59051 23.70647 20.36426 0 0 -3.462187 1.460498 20.07941 9.016899
-1760.798 108.6355 39.75794 3.739288 17.32822 166.1616 4.417551 10.91848 -8.387086 -0 15.50318 -0 -11.94274 2.348653 -2.509718 -2.25562 -0.8427849 -8.019285 -0 25.22238 -0 -7.754419 -11.27932 17.99166 0.8877893 0.8722307 2.468044 -1.054905 10.76952 -1.747941 4.160136 28.29859 2.33075 0.2691795 -16.45788 7.279204 -10.38063 -21.57712 9.31539 99.10786 1.067358 -10.4323 -0 0 11.23891 -26.39283 6.057024 12.32753 5.615027 -19.17786 -8.914883 -95.59051 23.70647 20.36426 0 0 -3.462187 1.460498 20.07941 9.016899
-1759.335 108.6251 33.46529 3.870066 17.30032 165.7222 4.417551 10.91848 -8.387086 -0 15.50318 -0 -11.94274 2.348653 -2.509718 -2.25562 -0.842785 -8.019285 -0 25.22238 -0 -7.754419 -11.27932 17.99166 0.8877893 0.8722307 2.468044 -1.054905 10.76952 -1.747941 4.160136 28.29859 2.33075 0.2691795 -16.45788 7.279204 -10.38063 -21.57712 9.31539 99.10786 1.067358 -10.4323 -0 0 11.23891 -26.39283 6.057024 12.32753 5.615027 -19.17786 -8.914883 -95.59051 23.70647 20.36426 0 0 -3.462187 1.460498 20.07941 9.016899
-1757.826 108.6147 27.18355 4.000595 17.27147 165.2829 4.417552 10.91848 -8.387086 -0 15.50318 -0 -11.94274 2.348653 -2.509718 -2.25562 -0.842785 -8.019285 -0 25.22238 -0 -7.754419 -11.27932 17.99166 0.8877893 0.8722307 2.468044 -1.054905 10.76952 -1.747941 4.160136 28.29859 2.33075 0.2691795 -16.45788 7.279204 -10.38063 -21.57712 9.31539 99.10786 1.067358 -10.4323 -0 0 11.23891 -26.39283 6.057024 12.32753 5.615027 -19.17786 -8.914883 -95.59051 23.70647 20.36426 0 0 -3.462187 1.460498 20.07941 9.016899
-1756.271 108.6043 20.91305 4.130869 17.24166 164.8437 4.417552 10.91848 -8.387086 -0 15.50318 -0 -11.94274 2.348653 -2.509718 -2.25562 -0.842785 -8.019285 -0 25.22238 -0 -7.754419 -11.27932 17.99166 0.8877893 0.8722307 2.468044 -1.054905 10.76952 -1.747941 4.160136 28.29859 2.33075 0.2691795 -16.45788 7.279204 -10.38063 -21.57712 9.31539 99.10786 1.067358 -10.4323 -0 0 11.23891 -26.39283 6.057024 12.32753 5.615027 -19.17786 -8.914883 -95.59051 23.70647 20.36426 0 0 -3.462187 1.460498 20.07941 9.016899
-1754.67 108.594 14.65412 4.260878 17.21089 164.4047 4.417552 10.91848 -8.387086 -0 15.50318 -0 -11.94274 2.348653 -2.509718 -2.25562 -0.8427851 -8.019285 -0 25.22238 -0 -7.754419 -11.27932 17.99166 0.8877893 0.8722307 2.468044 -1.054905 10.76952 -1.747941 4.160136 28.29859 2.33075 0.2691795 -16.45788 7.279204 -10.38063 -21.57712 9.31539 99.10786 1.067358 -10.4323 -0 0 11.23891 -26.39283 6.057024 12.32753 5.615027 -19.17786 -8.914883 -95.59051 23.70647 20.36426 0 0 -3.462187 1.460498 20.07941 9.016899
-1753.023 108.5836 8.407116 4.390614 17.17918 163.9659 4.417552 10.91848 -8.387086 -0 15.50318 -0 -11.94274 2.348653 -2.509718 -2.25562 -0.8427851 -8.019285 -0 25.22238 -0 -7.754419 -11.27932 17.99166 0.8877893 0.8722307 2.468044 -1.054905 10.76952 -1.747941 4.160136 28.29859 2.33075 0.2691795 -16.45788 7.279204 -10.38063 -21.57712 9.31539 99.10786 1.067358 -10.4323 -0 0 11.23891 -26.39283 6.057024 12.32753 5.615027 -19.17786 -8.914883 -95.59051 23.70647 20.36426 0 0 -3.462187 1.460498 20.07941 9.0169
-1751.33 108.5732 2.172362 4.52007 17.14652 163.5272 4.417552 10.91848 -8.387086 -0 15.50318 -0 -11.94274 2.348653 -2.509718 -2.25562 -0.8427851 -8.019285 -0 25.22238 -0 -7.754419 -11.27932 17.99166 0.8877893 0.8722307 2.468044 -1.054905 10.76952 -1.747941 4.160136 28.29859 2.33075 0.2691795 -16.45788 7.279204 -10.38063 -21.57712 9.31539 99.10786 1.067358 -10.4323 -0 0 11.23891 -26.39283 6.057024 12.32753 5.615027 -19.17786 -8.914883 -95.59051 23.70647 20.36426 0 0 -3.462187 1.460498 20.07941 9.0169
-1749.592 108.5628 -4.049802 4.649238 17.11292 163.0886 4.417552 10.91848 -8.387086 -0 15.50318 -0 -11.94274 2.348653 -2.509718 -2.25562 -0.8427851 -8.019285 -0 25.22238 -0 -7.754419 -11.27932 17.99166 0.8877893 0.8722307 2.468044 -1.054905 10.76952 -1.747941 4.160136 28.29859 2.33075 0.2691795 -16.45788 7.279204 -10.38063 -21.57712 9.31539 99.10786 1.067358 -10.4323 -0 0 11.23891 -26.39283 6.057024 12.32753 5.615027 -19.17786 -8.914883 -95.59051 23.70647 20.36426 0 0 -3.462187 1.460498 20.07941 9.0169
-1747.807 108.5525 -10.25904 4.778109 17.07837 162.6502 4.417552 10.91848 -8.387086 -0 15.50318 -0 -11.94274 2.348653 -2.509718 -2.25562 -0.8427851 -8.019285 -0 25.22238 -0 -7.754419 -11.27932 17.99166 0.8877893 0.8722307 2.468044 -1.054905 10.76952 -1.747941 4.160136 28.29859 2.33075 0.2691795 -16.45788 7.279204 -10.38063 -21.57712 9.31539 99.10786 1.067358 -10.4323 -0 0 11.23891 -26.39283 6.057024 12.32753 5.615027 -19.17786 -8.914883 -95.59051 23.70647 20.36426 0 0 -3.462187 1.460498 20.07941 9.0169
-1745.978 108.5421 -16.45502 4.906676 17.04287 162.212 4.417552 10.91848 -8.387086 -0 15.50318 -0 -11.94274 2.348653 -2.509718 -2.25562 -0.8427851 -8.019285 -0 25.22238 -0 -7.754419 -11.27932 17.99166 0.8877893 0.8722307 2.468044 -1.054905 10.76952 -1.747941 4.160136 28.29859 2.33075 0.2691795 -16.45788 7.279204 -10.38063 -21.57712 9.31539 99.10786 1.067358 -10.4323 -0 0 11.23891 -26.39283 6.057024 12.32753 5.615027 -19.17786 -8.914883 -95.59051 23.70647 20.36426 0 0 -3.462187 1.460498 20.07941 9.0169
-1744.103 108.5317 -22.63741 5.03493 17.00644 161.774 4.417552 10.91848 -8.387086 -0 15.50318 -0 -11.94274 2.348653 -2.509718 -2.25562 -0.8427852 -8.019285 -0 25.22238 -0 -7.754419 -11.27932 17.99166 0.8877893 0.8722307 2.468044 -1.054905 10.76952 -1.747941 4.160136 28.29859 2.33075 0.2691795 -16.45788 7.279204 -10.38063 -21.57712 9.31539 99.10786 1.067358 -10.4323 -0 0 11.23891 -26.39283 6.057024 12.32753 5.615027 -19.17786 -8.914883 -95.59051 23.70647 20.36426 0 0 -3.462187 1.460498 20.07941 9.0169
-1742.183 108.5214 -28.80588 5.162864 16.96908 161.3361 4.417552 10.91848 -8.387086 -0 15.50318 -0 -11.94274 2.348653 -2.509718 -2.25562 -0.8427852 -8.019285 -0 25.22238 -0 -7.754419 -11.27932 17.99166 0.8877893 0.8722307 2.468044 -1.054905 10.76952 -1.747941 4.160136 28.29859 2.33075 0.2691795 -16.45788 7.279204 -10.38063 -21.57712 9.31539 99.10786 1.067358 -10.4323 -0 0 11.23891 -26.39283 6.057024 12.32753 5.615027 -19.17786 -8.914883 -95.59051 23.70647 20.36426 0 0 -3.462187 1.460498 20.07941 9.0169
-1740.217 108.511 -34.96009 5.29047 16.93078 160.8984 4.417551 10.91848 -8.387086 -0 15.50318 -0 -11.94274 2.348653 -2.509718 -2.25562 -0.8427852 -8.019285 -0 25.22238 -0 -7.754419 -11.27932 17.99166 0.8877893 0.8722307 2.468044 -1.054905 10.76952 -1.747941 4.160136 28.29859 2.33075 0.2691795 -16.45788 7.279204 -10.38063 -21.57712 9.31539 99.10786 1.067358 -10.4323 -0 0 11.23891 -26.39283 6.057024 12.32753 5.615027 -19.17786 -8.914883 -95.59051 23.70647 20.36426 0 0 -3.462187 1.460498 20.07941 9.0169
-1738.206 108.5006 -41.09971 5.417741 16.89155 160.4609 4.417551 10.91848 -8.387086 -0 15.50318 -0 -11.94274 2.348653 -2.509718 -2.25562 -0.8427851 -8.019285 -0 25.22238 -0 -7.754419 -11.27932 17.99166 0.8877893 0.8722307 2.468044 -1.054905 10.76952 -1.747941 4.160136 28.29859 2.33075 0.2691795 -16.45788 7.279204 -10.38063 -21.57712 9.31539 99.10786 1.067358 -10.4323 -0 0 11.23891 -26.39283 6.057024 12.32753 5.615027 -19.17786 -8.914883 -95.59051 23.70647 20.36426 0 0 -3.462187 1.460498 20.07941 9.0169
-1736.151 108.4902 -47.22441 5.544667 16.85139 160.0235 4.417551 10.91848 -8.387086 -0 15.50318 -0 -11.94274 2.348653 -2.509718 -2.25562 -0.8427851 -8.019285 -0 25.22238 -0 -7.754419 -11.27932 17.99166 0.8877893 0.8722307 2.468044 -1.054905 10.76952 -1.747941 4.160136 28.29859 2.33075 0.2691795 -16.45788 7.279204 -10.38063 -21.57712 9.31539 99.10786 1.067358 -10.4323 -0 0 11.23891 -26.39283 6.057024 12.32753 5.615027 -19.17786 -8.914883 -95.59051 23.70647 20.36426 0 0 -3.462187 1.460498 20.07941 9.0169
-1734.05 108.4799 -53.33386 5.671243 16.8103 159.5864 4.417551 10.91848 -8.387086 -0 15.50318 -0 -11.94274 2.348653 -2.509718 -2.25562 -0.8427851 -8.019286 -0 25.22238 -0 -7.754419 -11.27932 17.99166 0.8877893 0.8722307 2.468044 -1.054905 10.76952 -1.747941 4.160136 28.29859 2.33075 0.2691795 -16.45788 7.279204 -10.38063 -21.57712 9.31539 99.10786 1.067358 -10.4323 -0 0 11.23891 -26.39283 6.057024 12.32753 5.615027 -19.17786 -8.914883 -95.59051 23.70647 20.36426 0 0 -3.462187 1.460498 20.07941 9.0169
-1731.905 108.4695 -59.42773 5.79746 16.76829 159.1494 4.417551 10.91848 -8.387086 -0 15.50318 -0 -11.94274 2.348653 -2.509718 -2.25562 -0.8427851 -8.019286 -0 25.22238 -0 -7.754419 -11.27932 17.99166 0.8877893 0.8722307 2.468044 -1.054905 10.76952 -1.747941 4.160136 28.29859 2.33075 0.2691795 -16.45788 7.279204 -10.38063 -21.57712 9.31539 99.10786 1.067358 -10.4323 -0 0 11.23891 -26.39283 6.057024 12.32753 5.615027 -19.17786 -8.914883 -95.59051 23.70647 20.36426 0 0 -3.462187 1.460498 20.07941 9.0169
-1729.715 108.4591 -65.5057 5.923311 16.72536 158.7127 4.417551 10.91848 -8.387086 -0 15.50318 -0 -11.94274 2.348653 -2.509718 -2.25562 -0.8427851 -8.019286 -0 25.22238 -0 -7.754419 -11.27932 17.99166 0.8877893 0.8722307 2.468044 -1.054905 10.76952 -1.747941 4.160136 28.29859 2.33075 0.2691795 -16.45788 7.279204 -10.38063 -21.57712 9.31539 99.10786 1.067358 -10.4323 -0 0 11.23891 -26.39283 6.057024 12.32753 5.615027 -19.17786 -8.914883 -95.59051 23.70647 20.36426 0 0 -3.462187 1.460498 20.07941 9.0169
